<svg xmlns="http://www.w3.org/2000/svg" width="1600" height="900" viewBox="0 0 1600 900">
  <defs>
    <linearGradient id="bg" x1="0" y1="0" x2="1" y2="1">
      <stop offset="0" stop-color="#070a13"/>
      <stop offset="0.55" stop-color="#10102b"/>
      <stop offset="1" stop-color="#210b3c"/>
    </linearGradient>
    <linearGradient id="accent" x1="0" y1="0" x2="1" y2="1">
      <stop offset="0" stop-color="#4d7cff"/>
      <stop offset="1" stop-color="#b64cff"/>
    </linearGradient>
    <filter id="glow"><feGaussianBlur stdDeviation="8" result="b"/><feMerge><feMergeNode in="b"/><feMergeNode in="SourceGraphic"/></feMerge></filter>
  </defs>
  <rect width="1600" height="900" fill="url(#bg)"/>
  <rect x="45" y="45" width="1510" height="810" rx="32" fill="#090e1a" stroke="#303a59"/>
  <text x="85" y="105" fill="#f7f8fc" font-family="Segoe UI" font-size="34" font-weight="700">AI Mouse Lab</text>
  <text x="85" y="138" fill="#9aa7be" font-family="Segoe UI" font-size="16">Record. Learn. Build one clean personal profile.</text>
  <rect x="80" y="180" width="1030" height="470" rx="28" fill="#0e1423" stroke="#27324b"/>
  <text x="110" y="225" fill="#f7f8fc" font-family="Segoe UI" font-size="20" font-weight="600">LIVE MOUSE VIEW · 3 SCREENS</text>
  <rect x="110" y="260" width="305" height="245" rx="16" fill="#090f20" stroke="#7c4dff" stroke-width="2"/>
  <rect x="435" y="260" width="305" height="245" rx="16" fill="#090f20" stroke="#303a59" stroke-width="2"/>
  <rect x="760" y="260" width="305" height="245" rx="16" fill="#090f20" stroke="#303a59" stroke-width="2"/>
  <text x="128" y="292" fill="#f7f8fc" font-family="Segoe UI" font-size="15">Screen 1</text>
  <text x="453" y="292" fill="#f7f8fc" font-family="Segoe UI" font-size="15">Screen 2</text>
  <text x="778" y="292" fill="#f7f8fc" font-family="Segoe UI" font-size="15">Screen 3</text>
  <path d="M180 430 C300 290 390 480 520 390 S720 300 840 420 S980 350 1020 330" fill="none" stroke="url(#accent)" stroke-width="7" filter="url(#glow)"/>
  <circle cx="1020" cy="330" r="12" fill="#38d996" filter="url(#glow)"/>
  <rect x="1135" y="180" width="375" height="470" rx="28" fill="#0e1423" stroke="#27324b"/>
  <text x="1170" y="225" fill="#f7f8fc" font-family="Segoe UI" font-size="20" font-weight="600">QUICK ACTIONS</text>
  <rect x="1170" y="260" width="305" height="72" rx="18" fill="#d83b52"/><text x="1275" y="305" fill="white" font-family="Segoe UI" font-size="22" font-weight="700">● RECORD</text>
  <rect x="1170" y="350" width="305" height="62" rx="16" fill="#141c30" stroke="#27324b"/><text x="1290" y="389" fill="white" font-family="Segoe UI" font-size="18">■ STOP</text>
  <rect x="1170" y="430" width="305" height="62" rx="16" fill="#141c30" stroke="#27324b"/><text x="1260" y="469" fill="white" font-family="Segoe UI" font-size="18">▶ PLAY TRACE</text>
  <rect x="1170" y="510" width="305" height="62" rx="16" fill="url(#accent)"/><text x="1260" y="549" fill="white" font-family="Segoe UI" font-size="18">✦ BUILD PROFILE</text>
  <rect x="80" y="680" width="1430" height="125" rx="28" fill="#0e1423" stroke="#27324b"/>
  <text x="115" y="728" fill="#f7f8fc" font-family="Segoe UI" font-size="22" font-weight="600">Aim Lab runs automatically balanced targets</text>
  <text x="115" y="765" fill="#9aa7be" font-family="Segoe UI" font-size="17">25% small-near · 25% small-far · 25% large-near · 25% large-far — no setup required</text>
  <circle cx="1390" cy="742" r="43" fill="none" stroke="#27324b" stroke-width="10"/><path d="M1390 699 A43 43 0 1 1 1351 760" fill="none" stroke="#7c4dff" stroke-width="10"/><text x="1363" y="751" fill="#f7f8fc" font-family="Segoe UI" font-size="21" font-weight="700">72%</text>
</svg>
